<svg width="1200" height="720" viewBox="0 0 1200 720" fill="none" xmlns="http://www.w3.org/2000/svg">
  <rect width="1200" height="720" rx="40" fill="#F5F5F5"/>
  <rect x="240" y="88" width="720" height="344" rx="28" fill="#FFFFFF"/>
  <rect x="286" y="138" width="18" height="18" rx="4" fill="#E0EEFF"/>
  <rect x="314" y="139" width="492" height="16" rx="8" fill="#CFCFCF"/>
  <rect x="286" y="212" width="348" height="18" rx="9" fill="#111111"/>
  <rect x="286" y="260" width="628" height="146" rx="18" fill="#E8E8E8"/>
  <rect x="286" y="454" width="84" height="12" rx="6" fill="#D0D0D0"/>
  <rect x="390" y="454" width="42" height="12" rx="6" fill="#D0D0D0"/>
  <rect x="238" y="560" width="724" height="56" rx="18" fill="#FFFFFF"/>
  <rect x="278" y="580" width="260" height="14" rx="7" fill="#D4D4D4"/>
  <rect x="902" y="574" width="28" height="28" rx="8" fill="#C7EF2B"/>
  <path d="M913 588H919" stroke="#0A0A0A" stroke-width="2" stroke-linecap="round"/>
  <path d="M917 584L921 588L917 592" stroke="#0A0A0A" stroke-width="2" stroke-linecap="round" stroke-linejoin="round"/>
</svg>
